<svg width="128" height="128" viewBox="0 0 128 128" fill="none" xmlns="http://www.w3.org/2000/svg">
<rect width="128" height="128" rx="23" fill="black"/>
<path d="M69.5659 20.1928L81.2894 31.9163C84.319 34.9459 84.319 39.858 81.2893 42.8877L65.6731 58.504C64.7934 59.3837 63.367 59.3837 62.4873 58.504L46.871 42.8877C43.8414 39.858 43.8414 34.9459 46.8711 31.9163L58.5945 20.1928C61.6242 17.1631 66.5362 17.1631 69.5659 20.1928Z" fill="white" stroke="white"/>
<path d="M96.2441 46.8712L107.968 58.5946C110.997 61.6243 110.997 66.5364 107.968 69.566L96.2441 81.2895C93.2145 84.3191 88.3024 84.3191 85.2727 81.2895L69.6564 65.6732C68.7767 64.7935 68.7767 63.3672 69.6564 62.4874L85.2727 46.8712C88.3024 43.8415 93.2145 43.8415 96.2441 46.8712Z" fill="white" stroke="white"/>
<path d="M42.8877 46.8712L58.504 62.4874C59.3837 63.3672 59.3837 64.7935 58.504 65.6732L42.8877 81.2895C39.858 84.3191 34.9459 84.3191 31.9163 81.2895L20.1928 69.566C17.1632 66.5363 17.1632 61.6243 20.1928 58.5946L31.9163 46.8712C34.9459 43.8415 39.858 43.8415 42.8877 46.8712Z" fill="white" stroke="white"/>
<path d="M65.6731 69.6564L81.2894 85.2727C84.319 88.3024 84.319 93.2145 81.2893 96.2441L69.5659 107.968C66.5362 110.997 61.6242 110.997 58.5945 107.968L46.871 96.2441C43.8414 93.2144 43.8414 88.3024 46.8711 85.2727L62.4873 69.6564C63.367 68.7767 64.7934 68.7767 65.6731 69.6564Z" fill="white" stroke="white"/>
</svg>
