<svg width="108" height="108" viewBox="0 0 108 108" fill="none" xmlns="http://www.w3.org/2000/svg">
<path d="M47.3329 6.24736C50.7832 2.79704 56.3773 2.79704 59.8276 6.24736L72.3703 18.7901C75.8207 22.2404 75.8207 27.8345 72.3703 31.2848L55.6627 47.9925C54.5126 49.1426 52.6479 49.1426 51.4978 47.9925L34.7901 31.2848C31.3398 27.8345 31.3398 22.2404 34.7901 18.7901L47.3329 6.24736Z" fill="#6A6A6A"/>
<path d="M75.8756 34.7902C79.3259 31.3399 84.92 31.3399 88.3703 34.7902L100.913 47.333C104.363 50.7833 104.363 56.3774 100.913 59.8277L88.3703 72.3705C84.92 75.8208 79.3259 75.8208 75.8756 72.3705L59.1679 55.6628C58.0178 54.5127 58.0178 52.648 59.1679 51.4979L75.8756 34.7902Z" fill="#6A6A6A"/>
<path d="M18.7901 34.7902C22.2404 31.3399 27.8345 31.3399 31.2848 34.7902L47.9925 51.4979C49.1426 52.648 49.1426 54.5127 47.9925 55.6628L31.2848 72.3705C27.8345 75.8208 22.2404 75.8208 18.7901 72.3705L6.24736 59.8277C2.79703 56.3774 2.79704 50.7833 6.24736 47.333L18.7901 34.7902Z" fill="#6A6A6A"/>
<path d="M51.4978 59.1679C52.6479 58.0178 54.5126 58.0178 55.6627 59.1679L72.3703 75.8756C75.8207 79.3259 75.8207 84.92 72.3703 88.3703L59.8276 100.913C56.3773 104.363 50.7832 104.363 47.3329 100.913L34.7901 88.3703C31.3398 84.92 31.3398 79.3259 34.7901 75.8756L51.4978 59.1679Z" fill="#6A6A6A"/>
</svg>
